<?xml version="1.0" encoding="utf-8"?>
<!-- Generator: Adobe Illustrator 16.0.0, SVG Export Plug-In . SVG Version: 6.00 Build 0)  -->
<!DOCTYPE svg PUBLIC "-//W3C//DTD SVG 1.1//EN" "http://www.w3.org/Graphics/SVG/1.1/DTD/svg11.dtd">
<svg version="1.1" id="Layer_1" xmlns="http://www.w3.org/2000/svg" xmlns:xlink="http://www.w3.org/1999/xlink" x="0px" y="0px"
	 width="862.434px" height="380.861px" viewBox="0 0 862.434 380.861" enable-background="new 0 0 862.434 380.861"
	 xml:space="preserve">
<g>
	<g>
		<g id="Stand">
			<g>
				<polygon fill="#E3E5E1" points="487.953,350.455 474.934,305.256 387.467,305.256 374.447,350.455 358.561,352.557 
					358.561,356.729 503.84,356.729 503.84,352.557 				"/>
			</g>
		</g>
		<g id="Shadow" opacity="0.102">
			<g>
				<polygon fill="#ADAEA9" points="474.934,305.256 387.467,305.256 384.648,315.037 477.754,315.037 				"/>
			</g>
		</g>
		<g id="iMac_base">
			<g>
				<path fill="#4A4D44" d="M641.863,2H220.574c-5.395,0-9.77,4.381-9.77,9.783V264.9h440.824V11.783
					C651.629,6.381,647.254,2,641.863,2z"/>
			</g>
		</g>
		<g id="iMac_bottom_base">
			<g>
				<path fill="#E3E5E1" d="M210.805,264.9v30.57c0,5.406,4.375,9.785,9.77,9.785h421.289c5.391,0,9.766-4.379,9.766-9.785V264.9
					H210.805z"/>
			</g>
		</g>
		<g id="Camera">
			<g>
				<circle fill="#F9F9FA" cx="431.828" cy="10.528" r="2.087"/>
			</g>
		</g>
		<rect x="227.389" y="19.471" fill="#99BB56" width="406.561" height="228.627"/>
		<g>
			<path opacity="0.2" fill="#231F20" enable-background="new    " d="M462.742,158.031c0,8.285-6.718,15-15,15s-15-6.715-15-15
				c0-15,15-27,15-27S462.742,143.031,462.742,158.031z"/>
			<path fill="#C85D5D" d="M462.742,155.031c0,8.285-6.718,15-15,15s-15-6.715-15-15c0-15,15-27,15-27
				S462.742,140.031,462.742,155.031z"/>
			<path opacity="0.2" fill="#231F20" enable-background="new    " d="M444.742,146.031c0,8.285-6.718,15-15,15s-15-6.715-15-15
				c0-15,15-27,15-27S444.742,131.031,444.742,146.031z"/>
			<path fill="#79B4D4" d="M444.742,143.031c0,8.285-6.718,15-15,15s-15-6.715-15-15c0-15,15-27,15-27
				S444.742,128.031,444.742,143.031z"/>
			<path opacity="0.2" fill="#231F20" enable-background="new    " d="M426.742,158.031c0,8.285-6.718,15-15,15
				c-8.283,0-15-6.715-15-15c0-15,15-27,15-27S426.742,143.031,426.742,158.031z"/>
			<path fill="#F5CF87" d="M426.742,155.031c0,8.285-6.718,15-15,15c-8.283,0-15-6.715-15-15c0-15,15-27,15-27
				S426.742,140.031,426.742,155.031z"/>
		</g>
	</g>
	<g>
		<g id="Macbook_base">
			<g>
				<path fill="#4A4D44" d="M811.256,176.861H678.15H545.049c-5.395,0-9.77,4.379-9.77,9.781v179.754H678.15h142.871V186.643
					C821.021,181.24,816.646,176.861,811.256,176.861z"/>
			</g>
		</g>
		<rect x="544.654" y="186.101" fill="#FCD14C" width="267" height="171.37"/>
		<g id="Keyboard__x2B__trackpad">
			<g>
				<path fill="#E3E5E1" d="M678.15,366.396H498.654c0.629,6.828,8.566,12.227,18.273,12.227H678.15h161.223
					c9.707,0,17.648-5.398,18.277-12.227H678.15z"/>
			</g>
		</g>
		<g id="Open">
			<g>
				<path fill="#F9F9FA" d="M678.264,366.396h-0.113h-25.52c0.566,2.789,3.027,4.891,5.984,4.891h19.535h0.113h19.539
					c2.953,0,5.418-2.102,5.984-4.891H678.264z"/>
			</g>
		</g>
		<g id="Camera_1_">
			<g>
				<circle fill="#F9F9FA" cx="678.15" cy="181.72" r="2.087"/>
			</g>
		</g>
		<g>
			<g opacity="0.2">
				<path fill="#231F20" d="M698.441,291.487l-17.676-17.678c-1.289-1.289-3.101-1.709-4.75-1.296l-10.115-9.993l-3.797-7.371
					l-7.389-3.807l-3.584,3.586l3.805,7.389l7.389,3.804l0.012-0.011l10.08,9.959c-0.439,1.665-0.027,3.506,1.277,4.811
					l17.678,17.679c1.953,1.952,5.119,1.952,7.07,0C700.396,296.604,700.396,293.438,698.441,291.487z"/>
			</g>
			<g>
				<polygon fill="#515E73" points="679.192,280.263 659.064,260.382 662.732,256.892 682.86,276.771 				"/>
			</g>
			<g>
				<path fill="#F5CF87" d="M698.441,296.056c-1.952,1.953-5.117,1.953-7.07,0l-17.676-17.677c-1.954-1.952-1.954-5.118,0-7.071l0,0
					c1.952-1.952,5.117-1.952,7.07,0l17.678,17.678C700.396,290.938,700.396,294.104,698.441,296.056L698.441,296.056z"/>
			</g>
			<g opacity="0.2">
				<path fill="#231F20" d="M702.699,256.625l-8.096,8.095c-1.953,1.951-5.119,1.951-7.07,0c-1.953-1.955-1.953-5.119,0-7.072
					l8.096-8.096c-1.416-0.554-2.95-0.869-4.561-0.869c-6.902,0-12.5,5.596-12.5,12.5c0,1.611,0.314,3.145,0.869,4.559
					l-13.811,13.811c-1.414-0.554-2.948-0.869-4.559-0.869c-6.902,0-12.5,5.596-12.5,12.5c0,1.611,0.314,3.145,0.869,4.559
					l8.096-8.095c1.953-1.952,5.119-1.952,7.07,0c1.953,1.954,1.953,5.118,0,7.071l-8.096,8.096c1.416,0.555,2.95,0.869,4.561,0.869
					c6.902,0,12.5-5.596,12.5-12.5c0-1.611-0.314-3.145-0.869-4.558l13.811-13.812c1.414,0.555,2.948,0.869,4.559,0.869
					c6.902,0,12.5-5.596,12.5-12.5C703.568,259.571,703.254,258.038,702.699,256.625z"/>
			</g>
			<g>
				
					<rect x="665.356" y="268.682" transform="matrix(-0.7071 0.7071 -0.7071 -0.7071 1347.6433 -10.8479)" fill="#FFFFFF" width="21.425" height="10.001"/>
			</g>
			<g>
				<polygon fill="#515E73" points="662.324,263.621 654.936,259.815 651.131,252.429 654.715,248.843 662.104,252.647 
					665.908,260.037 				"/>
			</g>
			<g>
				<g>
					<path fill="#FFFFFF" d="M694.604,262.22c-1.953,1.951-5.119,1.951-7.07,0c-1.953-1.955-1.953-5.119,0-7.072l8.096-8.096
						c-1.416-0.554-2.95-0.869-4.561-0.869c-6.902,0-12.5,5.596-12.5,12.5s5.598,12.5,12.5,12.5s12.5-5.596,12.5-12.5
						c0-1.611-0.314-3.145-0.869-4.558L694.604,262.22z"/>
				</g>
			</g>
			<g>
				<g>
					<path fill="#FFFFFF" d="M657.533,285.146c1.953-1.952,5.119-1.952,7.07,0c1.953,1.954,1.953,5.118,0,7.071l-8.096,8.096
						c1.416,0.555,2.95,0.869,4.561,0.869c6.902,0,12.5-5.596,12.5-12.5s-5.598-12.5-12.5-12.5s-12.5,5.596-12.5,12.5
						c0,1.611,0.314,3.145,0.869,4.559L657.533,285.146z"/>
				</g>
			</g>
		</g>
	</g>
	<g>
		<g id="iPad_base">
			<g>
				<path fill="#4A4D44" d="M245.008,146.531H105.799c-6.742,0-12.211,5.475-12.211,12.229v190.758
					c0,6.75,5.469,12.227,12.211,12.227h139.209c6.744,0,12.211-5.477,12.211-12.227V158.76
					C257.219,152.006,251.752,146.531,245.008,146.531z"/>
			</g>
		</g>
		<rect x="108.656" y="168.471" fill="#EB7244" width="133" height="172"/>
		<g id="Homebutton">
			<g>
				<circle fill="#F9F9FA" cx="175.404" cy="350.709" r="5.066"/>
			</g>
		</g>
		<g id="Speaker__x2B__cam">
			<g>
				<path fill-rule="evenodd" clip-rule="evenodd" fill="#F9F9FA" d="M166.855,157.537c-0.674,0-1.221,0.547-1.221,1.223
					s0.547,1.223,1.221,1.223s1.221-0.547,1.221-1.223S167.529,157.537,166.855,157.537z M185.174,157.537h-12.213
					c-0.674,0-1.221,0.547-1.221,1.223s0.547,1.223,1.221,1.223h12.213c0.672,0,1.219-0.547,1.219-1.223
					S185.846,157.537,185.174,157.537z"/>
			</g>
		</g>
		<g>
			<g opacity="0.2">
				<g>
					<g>
						<path fill="#231F20" d="M186.835,270.808c-0.755,0-1.492-0.381-1.918-1.07c-0.652-1.057-0.323-2.444,0.734-3.096l11.39-7.021
							c0.005-0.021,0.007-0.041,0.007-0.063c0-0.022-0.002-0.044-0.007-0.064l-11.388-7.021c-1.057-0.652-1.387-2.037-0.735-3.096
							s2.038-1.387,3.096-0.734l11.959,7.373l0.187,0.187c0.896,0.896,1.39,2.087,1.39,3.356c0,1.267-0.493,2.457-1.39,3.354
							l-0.187,0.188l-11.96,7.373C187.646,270.698,187.238,270.808,186.835,270.808z"/>
					</g>
				</g>
				<g>
					<g>
						<path fill="#231F20" d="M163.298,270.808c-0.402,0-0.811-0.109-1.179-0.336l-11.959-7.373l-0.187-0.188
							c-0.896-0.896-1.39-2.087-1.39-3.354c0-1.27,0.494-2.461,1.39-3.356l0.185-0.187l11.96-7.373
							c1.059-0.652,2.443-0.324,3.096,0.734c0.653,1.059,0.323,2.443-0.735,3.096l-11.388,7.021
							c-0.005,0.021-0.007,0.042-0.007,0.064c0,0.021,0.002,0.042,0.007,0.063l11.39,7.021c1.057,0.651,1.386,2.039,0.734,3.096
							C164.791,270.427,164.052,270.808,163.298,270.808z"/>
					</g>
				</g>
			</g>
			<g opacity="0.2">
				<g>
					<path fill="#231F20" d="M167.754,280.933c-0.266,0-0.538-0.048-0.803-0.149c-1.161-0.444-1.741-1.745-1.298-2.905l14.625-38.25
						c0.445-1.16,1.746-1.743,2.906-1.298c1.161,0.445,1.742,1.746,1.298,2.906l-14.625,38.25
						C169.512,280.382,168.66,280.933,167.754,280.933z"/>
				</g>
			</g>
			<g>
				<g>
					<path fill="#FFFFFF" d="M186.835,268.558c-0.755,0-1.493-0.38-1.918-1.07c-0.652-1.057-0.323-2.444,0.734-3.096l11.389-7.021
						c0.011-0.041,0.011-0.085,0-0.127l-11.387-7.021c-1.057-0.652-1.388-2.037-0.735-3.096c0.652-1.059,2.038-1.389,3.096-0.734
						l11.961,7.373l0.187,0.187c1.849,1.852,1.849,4.86,0,6.714l-0.187,0.184l-11.961,7.375
						C187.646,268.448,187.238,268.558,186.835,268.558z"/>
				</g>
				<g>
					<path fill="#FFFFFF" d="M163.298,268.558c-0.402,0-0.811-0.109-1.178-0.336l-11.962-7.373l-0.186-0.188
						c-1.851-1.851-1.851-4.859,0-6.711l0.186-0.186l11.961-7.373c1.056-0.654,2.444-0.325,3.096,0.733
						c0.652,1.056,0.322,2.444-0.734,3.095l-11.389,7.023c-0.011,0.042-0.011,0.086,0,0.127l11.389,7.021
						c1.057,0.65,1.387,2.039,0.734,3.095C164.791,268.178,164.052,268.558,163.298,268.558z"/>
				</g>
			</g>
			<g>
				<path fill="#FFFFFF" d="M167.754,278.683c-0.266,0-0.538-0.048-0.803-0.149c-1.161-0.444-1.741-1.745-1.298-2.904l14.625-38.25
					c0.445-1.16,1.746-1.744,2.906-1.299c1.161,0.445,1.742,1.746,1.298,2.905l-14.625,38.25
					C169.512,278.132,168.66,278.683,167.754,278.683z"/>
			</g>
		</g>
	</g>
	<g>
		<g id="iPhone_5_base">
			<g>
				<path fill="#4A4D44" d="M103.396,227.236H56.994c-6.742,0-12.211,5.477-12.211,12.227v127.172
					c0,6.754,5.469,12.227,12.211,12.227h46.402c6.746,0,12.211-5.473,12.211-12.227V239.463
					C115.607,232.713,110.143,227.236,103.396,227.236z"/>
			</g>
		</g>
		<g id="Homebutton_1_">
			<g>
				<ellipse fill="#F9F9FA" cx="80.197" cy="367.828" rx="5.063" ry="5.068"/>
			</g>
		</g>
		<g id="Speaker__x2B__cam_1_">
			<g>
				<path fill-rule="evenodd" clip-rule="evenodd" fill="#F9F9FA" d="M70.428,238.24c-0.676,0-1.223,0.551-1.223,1.223
					c0,0.676,0.547,1.227,1.223,1.227c0.674,0,1.221-0.551,1.221-1.227C71.648,238.791,71.102,238.24,70.428,238.24z M88.744,238.24
					H76.533c-0.676,0-1.223,0.551-1.223,1.223c0,0.676,0.547,1.227,1.223,1.227h12.211c0.676,0,1.221-0.551,1.221-1.227
					C89.965,238.791,89.42,238.24,88.744,238.24z"/>
			</g>
		</g>
		<rect x="49.76" y="248.471" fill="#75A7BF" width="60.896" height="109"/>
		<g>
			<path opacity="0.2" fill="#231F20" enable-background="new    " d="M83.124,312.078l-9-24c-0.164-0.438-0.584-0.729-1.053-0.729
				s-0.889,0.291-1.053,0.729l-9,24c-0.218,0.582,0.077,1.231,0.658,1.448c0.583,0.221,1.23-0.076,1.448-0.657l3.523-9.396h8.848
				l3.523,9.396c0.168,0.451,0.598,0.729,1.053,0.729c0.131,0,0.265-0.023,0.396-0.072C83.046,313.31,83.342,312.66,83.124,312.078z
				 M69.49,301.224l3.58-9.547l3.58,9.547H69.49z"/>
			<g opacity="0.2">
				<path fill="#231F20" d="M96.32,313.599h-6c-3.516,0-6.375-2.859-6.375-6.375c0-3.42,2.741-6,6.375-6h4.875v-0.75
					c0-1.191-0.363-2.062-1.11-2.659c-1.896-1.521-5.889-1.052-7.267-0.743c-0.606,0.136-1.207-0.245-1.344-0.85
					c-0.137-0.607,0.244-1.207,0.849-1.345c0.245-0.056,6.031-1.327,9.166,1.177c1.298,1.039,1.957,2.525,1.957,4.42v12
					C97.445,313.096,96.942,313.599,96.32,313.599z M90.32,303.474c-2.391,0-4.125,1.578-4.125,3.75c0,2.275,1.85,4.125,4.125,4.125
					h4.875v-7.875H90.32z"/>
			</g>
			
				<polyline fill="none" stroke="#FFFFFF" stroke-width="3" stroke-linecap="round" stroke-linejoin="round" stroke-miterlimit="10" points="
				64.07,310.974 73.07,286.974 82.07,310.974 			"/>
			
				<line fill="none" stroke="#FFFFFF" stroke-width="3" stroke-linecap="round" stroke-linejoin="round" stroke-miterlimit="10" x1="68.57" y1="300.849" x2="77.57" y2="300.849"/>
			<path fill="none" stroke="#FFFFFF" stroke-width="3" stroke-linecap="round" stroke-linejoin="round" stroke-miterlimit="10" d="
				M86.57,294.474c0,0,9.75-2.203,9.75,4.5c0,7.5,0,12,0,12h-6c-2.9,0-5.25-2.351-5.25-5.25l0,0c0-2.899,2.35-4.875,5.25-4.875h5.25
				"/>
		</g>
	</g>
</g>
</svg>
