<?xml version="1.0" encoding="utf-8"?>
<!-- Generator: Adobe Illustrator 16.0.0, SVG Export Plug-In . SVG Version: 6.00 Build 0)  -->
<!DOCTYPE svg PUBLIC "-//W3C//DTD SVG 1.1//EN" "http://www.w3.org/Graphics/SVG/1.1/DTD/svg11.dtd">
<svg version="1.1" id="Layer_1" xmlns="http://www.w3.org/2000/svg" xmlns:xlink="http://www.w3.org/1999/xlink" x="0px" y="0px"
	 width="862.434px" height="380.861px" viewBox="0 0 862.434 380.861" enable-background="new 0 0 862.434 380.861"
	 xml:space="preserve">
<g>
	<g>
		<g id="Stand">
			<g>
				<polygon fill="#E3E5E1" points="487.953,350.455 474.934,305.256 387.467,305.256 374.447,350.455 358.561,352.557 
					358.561,356.729 503.84,356.729 503.84,352.557 				"/>
			</g>
		</g>
		<g id="Shadow" opacity="0.102">
			<g>
				<polygon fill="#ADAEA9" points="474.934,305.256 387.467,305.256 384.648,315.037 477.754,315.037 				"/>
			</g>
		</g>
		<g id="iMac_base">
			<g>
				<path fill="#4A4D44" d="M641.863,2H220.574c-5.395,0-9.77,4.381-9.77,9.783V264.9h440.824V11.783
					C651.629,6.381,647.254,2,641.863,2z"/>
			</g>
		</g>
		<g id="iMac_bottom_base">
			<g>
				<path fill="#E3E5E1" d="M210.805,264.9v30.57c0,5.406,4.375,9.785,9.77,9.785h421.289c5.391,0,9.766-4.379,9.766-9.785V264.9
					H210.805z"/>
			</g>
		</g>
		<g id="Camera">
			<g>
				<circle fill="#F9F9FA" cx="431.828" cy="10.528" r="2.087"/>
			</g>
		</g>
		<rect x="227.389" y="19.471" fill="#99BB56" width="406.561" height="228.627"/>
		<g>
			<g id="Layer_2_3_">
				<g>
					<path fill="#494C43" d="M460.3,129.93c-0.204-0.449-0.451-0.873-0.74-1.268c-2.194-3.678-24.623-16.475-29.033-16.58
						c-0.256-0.029-0.519-0.043-0.783-0.043c-0.285,0-0.564,0.016-0.842,0.049c-4.67,0.334-26.615,12.896-28.92,16.59
						c-0.293,0.398-0.543,0.83-0.748,1.287c-2.145,3.822-2.145,29.965,0.037,33.295c0.174,0.367,0.377,0.713,0.607,1.043
						c1.873,3.537,24.363,16.404,28.999,16.662c0.284,0.035,0.573,0.053,0.866,0.053c0.395,0,0.783-0.033,1.16-0.096
						c0.082-0.01,0.165-0.029,0.248-0.043c0.017-0.006,0.035-0.008,0.055-0.012c0.098-0.02,0.201-0.043,0.309-0.07c0,0,0,0,0.002,0
						c6.103-1.531,25.715-12.883,27.971-16.402c0.352-0.469,0.649-0.982,0.877-1.527C462.368,158.414,462.357,133.732,460.3,129.93z
						"/>
				</g>
			</g>
			<g opacity="0.2">
				<path d="M459.56,128.664c-0.666-1.117-3.203-3.074-6.531-5.262l-46.381,46.379c7.568,4.951,19.063,11.014,22.229,11.186
					c0.284,0.035,0.573,0.057,0.866,0.057c0.395,0,0.783-0.035,1.16-0.098c0.082-0.014,0.165-0.025,0.248-0.043
					c0.017-0.004,0.035-0.01,0.055-0.012c0.098-0.023,0.201-0.045,0.309-0.074c0,0,0,0,0.002,0
					c6.103-1.531,25.715-12.879,27.971-16.398c0.352-0.465,0.649-0.977,0.877-1.527c2.004-4.453,1.993-29.137-0.064-32.936
					C460.096,129.484,459.849,129.059,459.56,128.664z"/>
			</g>
			<g>
				<path fill="#FFFFFF" d="M429.259,160.291c-1.473,0-2.939-0.045-4.4-0.133c-1.459-0.092-2.978-0.307-4.554-0.643v-26.047
					c1.239-0.232,2.597-0.408,4.069-0.521c1.475-0.117,2.844-0.176,4.109-0.176c1.705,0,3.275,0.125,4.709,0.367
					c1.434,0.248,2.669,0.666,3.701,1.264c1.033,0.592,1.84,1.373,2.424,2.344c0.581,0.969,0.869,2.164,0.869,3.584
					c0,2.146-1.032,3.838-3.098,5.076c1.703,0.648,2.867,1.525,3.486,2.637c0.621,1.111,0.932,2.365,0.932,3.762
					c0,2.816-1.027,4.938-3.084,6.355C436.371,159.584,433.313,160.291,429.259,160.291z M426.196,143.625h2.945
					c1.861,0,3.191-0.236,3.992-0.717c0.801-0.479,1.201-1.248,1.201-2.307c0-1.086-0.412-1.846-1.239-2.287
					c-0.826-0.438-2.044-0.656-3.644-0.656c-0.517,0-1.072,0.002-1.666,0.018c-0.596,0.014-1.125,0.043-1.59,0.096V143.625z
					 M426.196,148.236v6.941c0.438,0.049,0.917,0.088,1.434,0.113c0.516,0.025,1.086,0.039,1.707,0.039
					c1.807,0,3.267-0.258,4.38-0.775c1.108-0.518,1.665-1.473,1.665-2.867c0-1.242-0.464-2.129-1.396-2.656
					c-0.931-0.527-2.261-0.795-3.991-0.795H426.196z"/>
			</g>
		</g>
	</g>
	<g>
		<g id="Macbook_base">
			<g>
				<path fill="#4A4D44" d="M811.256,176.861H678.15H545.049c-5.395,0-9.77,4.379-9.77,9.781v179.754H678.15h142.871V186.643
					C821.021,181.24,816.646,176.861,811.256,176.861z"/>
			</g>
		</g>
		<rect x="544.654" y="186.101" fill="#FCD14C" width="267" height="171.37"/>
		<g id="Keyboard__x2B__trackpad">
			<g>
				<path fill="#E3E5E1" d="M678.15,366.396H498.654c0.629,6.828,8.566,12.227,18.273,12.227H678.15h161.223
					c9.707,0,17.648-5.398,18.277-12.227H678.15z"/>
			</g>
		</g>
		<g id="Open">
			<g>
				<path fill="#F9F9FA" d="M678.264,366.396h-0.113h-25.52c0.566,2.789,3.027,4.891,5.984,4.891h19.535h0.113h19.539
					c2.953,0,5.418-2.102,5.984-4.891H678.264z"/>
			</g>
		</g>
		<g id="Camera_1_">
			<g>
				<circle fill="#F9F9FA" cx="678.15" cy="181.72" r="2.087"/>
			</g>
		</g>
		<g>
			<g id="Layer_2_4_">
				<g>
					<path fill="#494C43" d="M701.127,262.929c-0.152-0.337-0.338-0.655-0.555-0.95c-1.646-2.759-18.468-12.356-21.775-12.436
						c-0.191-0.021-0.389-0.032-0.587-0.032c-0.214,0-0.424,0.012-0.632,0.036c-3.502,0.251-19.961,9.673-21.689,12.443
						c-0.22,0.299-0.407,0.622-0.562,0.965c-1.608,2.867-1.608,22.474,0.028,24.971c0.13,0.275,0.282,0.535,0.455,0.783
						c1.405,2.652,18.272,12.303,21.75,12.496c0.213,0.026,0.43,0.039,0.649,0.039c0.296,0,0.587-0.024,0.87-0.071
						c0.062-0.007,0.123-0.022,0.186-0.032c0.013-0.004,0.026-0.006,0.041-0.009c0.073-0.015,0.151-0.032,0.231-0.053
						c0,0,0,0,0.002,0c4.577-1.148,19.286-9.662,20.978-12.302c0.264-0.352,0.487-0.736,0.658-1.146
						C702.679,284.292,702.67,265.781,701.127,262.929z"/>
				</g>
			</g>
			<g opacity="0.2">
				<path d="M700.572,261.979c-0.5-0.838-2.402-2.306-4.898-3.946l-34.786,34.784c5.677,3.714,14.297,8.261,16.673,8.39
					c0.213,0.025,0.43,0.042,0.649,0.042c0.296,0,0.587-0.026,0.87-0.073c0.062-0.01,0.123-0.02,0.186-0.032
					c0.013-0.003,0.026-0.007,0.041-0.009c0.073-0.018,0.151-0.033,0.231-0.056c0,0,0,0,0.002,0
					c4.577-1.148,19.286-9.659,20.978-12.299c0.264-0.349,0.487-0.732,0.658-1.146c1.503-3.34,1.494-21.853-0.049-24.701
					C700.975,262.595,700.789,262.275,700.572,261.979z"/>
			</g>
			<g>
				<path fill="#FFFFFF" d="M677.847,285.699c-1.104,0-2.205-0.033-3.301-0.1c-1.094-0.068-2.233-0.229-3.415-0.481v-19.535
					c0.93-0.175,1.947-0.306,3.052-0.392c1.106-0.088,2.133-0.131,3.082-0.131c1.279,0,2.457,0.094,3.532,0.275
					c1.075,0.186,2.002,0.499,2.775,0.947c0.775,0.443,1.38,1.029,1.818,1.758c0.436,0.727,0.651,1.623,0.651,2.688
					c0,1.61-0.774,2.879-2.323,3.808c1.277,0.486,2.15,1.144,2.615,1.978c0.466,0.834,0.698,1.773,0.698,2.821
					c0,2.112-0.771,3.703-2.313,4.767C683.181,285.17,680.888,285.699,677.847,285.699z M675.55,273.2h2.209
					c1.396,0,2.394-0.177,2.994-0.538c0.601-0.358,0.9-0.936,0.9-1.729c0-0.814-0.309-1.384-0.929-1.716
					c-0.62-0.328-1.533-0.492-2.733-0.492c-0.388,0-0.804,0.002-1.249,0.014c-0.447,0.01-0.844,0.032-1.192,0.072V273.2z
					 M675.55,276.658v5.207c0.328,0.036,0.688,0.065,1.075,0.084c0.387,0.02,0.814,0.029,1.28,0.029c1.354,0,2.45-0.193,3.284-0.581
					c0.832-0.388,1.249-1.104,1.249-2.15c0-0.932-0.348-1.597-1.046-1.992s-1.696-0.597-2.994-0.597H675.55z"/>
			</g>
		</g>
	</g>
	<g>
		<g id="iPad_base">
			<g>
				<path fill="#4A4D44" d="M245.008,146.531H105.799c-6.742,0-12.211,5.475-12.211,12.229v190.758
					c0,6.75,5.469,12.227,12.211,12.227h139.209c6.744,0,12.211-5.477,12.211-12.227V158.76
					C257.219,152.006,251.752,146.531,245.008,146.531z"/>
			</g>
		</g>
		<rect x="108.656" y="168.471" fill="#EB7244" width="133" height="172"/>
		<g id="Homebutton">
			<g>
				<circle fill="#F9F9FA" cx="175.404" cy="350.709" r="5.066"/>
			</g>
		</g>
		<g id="Speaker__x2B__cam">
			<g>
				<path fill-rule="evenodd" clip-rule="evenodd" fill="#F9F9FA" d="M166.855,157.537c-0.674,0-1.221,0.547-1.221,1.223
					s0.547,1.223,1.221,1.223s1.221-0.547,1.221-1.223S167.529,157.537,166.855,157.537z M185.174,157.537h-12.213
					c-0.674,0-1.221,0.547-1.221,1.223s0.547,1.223,1.221,1.223h12.213c0.672,0,1.219-0.547,1.219-1.223
					S185.846,157.537,185.174,157.537z"/>
			</g>
		</g>
		<g>
			<g id="Layer_2_2_">
				<g>
					<path fill="#494C43" d="M195.774,247.616c-0.136-0.3-0.301-0.582-0.493-0.846c-1.463-2.452-16.415-10.983-19.355-11.054
						c-0.171-0.02-0.346-0.028-0.522-0.028c-0.189,0-0.376,0.011-0.561,0.033c-3.113,0.222-17.744,8.597-19.28,11.06
						c-0.195,0.266-0.362,0.553-0.499,0.857c-1.43,2.549-1.43,19.977,0.025,22.197c0.115,0.244,0.251,0.476,0.404,0.695
						c1.249,2.357,16.242,10.936,19.333,11.108c0.189,0.023,0.382,0.034,0.577,0.034c0.264,0,0.522-0.021,0.773-0.063
						c0.055-0.007,0.11-0.02,0.166-0.028c0.011-0.004,0.023-0.006,0.036-0.008c0.065-0.014,0.134-0.029,0.206-0.047c0,0,0,0,0.001,0
						c4.068-1.021,17.144-8.589,18.647-10.936c0.234-0.313,0.433-0.654,0.584-1.018C197.153,266.605,197.146,250.15,195.774,247.616
						z"/>
				</g>
			</g>
			<g opacity="0.2">
				<path d="M195.281,246.771c-0.444-0.744-2.136-2.049-4.354-3.508l-30.92,30.92c5.045,3.301,12.708,7.342,14.819,7.457
					c0.189,0.023,0.382,0.037,0.577,0.037c0.264,0,0.522-0.023,0.773-0.064c0.055-0.009,0.11-0.018,0.166-0.029
					c0.011-0.002,0.023-0.006,0.036-0.008c0.065-0.015,0.134-0.029,0.206-0.049c0,0,0,0,0.001,0
					c4.068-1.021,17.144-8.586,18.647-10.933c0.234-0.31,0.433-0.651,0.584-1.019c1.336-2.969,1.329-19.424-0.043-21.956
					C195.639,247.319,195.474,247.035,195.281,246.771z"/>
			</g>
			<g>
				<path fill="#FFFFFF" d="M175.081,267.856c-0.982,0-1.96-0.03-2.934-0.089c-0.973-0.061-1.985-0.204-3.036-0.428v-17.365
					c0.826-0.154,1.731-0.271,2.713-0.348c0.983-0.077,1.896-0.116,2.739-0.116c1.137,0,2.184,0.083,3.14,0.244
					c0.956,0.165,1.779,0.444,2.468,0.843c0.688,0.395,1.227,0.915,1.615,1.563c0.388,0.646,0.58,1.442,0.58,2.389
					c0,1.432-0.688,2.56-2.065,3.385c1.136,0.432,1.911,1.017,2.324,1.758c0.414,0.74,0.621,1.577,0.621,2.508
					c0,1.877-0.685,3.291-2.056,4.236C179.822,267.385,177.784,267.856,175.081,267.856z M173.039,256.746h1.964
					c1.24,0,2.127-0.158,2.661-0.478s0.801-0.833,0.801-1.538c0-0.724-0.274-1.23-0.826-1.525c-0.551-0.291-1.362-0.438-2.429-0.438
					c-0.345,0-0.715,0.002-1.111,0.012s-0.75,0.029-1.06,0.064V256.746z M173.039,259.82v4.627c0.292,0.033,0.611,0.059,0.956,0.076
					c0.344,0.017,0.724,0.026,1.138,0.026c1.204,0,2.178-0.172,2.92-0.518c0.739-0.345,1.11-0.981,1.11-1.911
					c0-0.828-0.31-1.419-0.931-1.771c-0.62-0.352-1.507-0.529-2.661-0.529H173.039z"/>
			</g>
		</g>
	</g>
	<g>
		<g id="iPhone_5_base">
			<g>
				<path fill="#4A4D44" d="M103.396,227.236H56.994c-6.742,0-12.211,5.477-12.211,12.227v127.172
					c0,6.754,5.469,12.227,12.211,12.227h46.402c6.746,0,12.211-5.473,12.211-12.227V239.463
					C115.607,232.713,110.143,227.236,103.396,227.236z"/>
			</g>
		</g>
		<g id="Homebutton_1_">
			<g>
				<ellipse fill="#F9F9FA" cx="80.197" cy="367.828" rx="5.063" ry="5.068"/>
			</g>
		</g>
		<g id="Speaker__x2B__cam_1_">
			<g>
				<path fill-rule="evenodd" clip-rule="evenodd" fill="#F9F9FA" d="M70.428,238.24c-0.676,0-1.223,0.551-1.223,1.223
					c0,0.676,0.547,1.227,1.223,1.227c0.674,0,1.221-0.551,1.221-1.227C71.648,238.791,71.102,238.24,70.428,238.24z M88.744,238.24
					H76.533c-0.676,0-1.223,0.551-1.223,1.223c0,0.676,0.547,1.227,1.223,1.227h12.211c0.676,0,1.221-0.551,1.221-1.227
					C89.965,238.791,89.42,238.24,88.744,238.24z"/>
			</g>
		</g>
		<rect x="49.76" y="248.471" fill="#75A7BF" width="60.896" height="109"/>
		<g>
			<g id="Layer_2_1_">
				<g>
					<path fill="#494C43" d="M95.934,295.402c-0.108-0.24-0.241-0.466-0.394-0.677c-1.17-1.962-13.132-8.786-15.484-8.843
						c-0.137-0.016-0.277-0.022-0.418-0.022c-0.152,0-0.301,0.009-0.448,0.026c-2.491,0.178-14.196,6.877-15.425,8.848
						c-0.156,0.213-0.29,0.442-0.399,0.686c-1.143,2.039-1.144,15.981,0.021,17.758c0.092,0.195,0.2,0.381,0.323,0.557
						c0.999,1.886,12.994,8.748,15.466,8.887c0.151,0.019,0.306,0.027,0.462,0.027c0.211,0,0.417-0.018,0.619-0.051
						c0.044-0.006,0.088-0.016,0.132-0.022c0.009-0.003,0.02-0.005,0.029-0.007c0.052-0.011,0.107-0.023,0.165-0.037c0,0,0,0,0,0
						c3.255-0.817,13.715-6.871,14.918-8.748c0.188-0.25,0.346-0.523,0.467-0.814C97.038,310.594,97.032,297.43,95.934,295.402z"/>
				</g>
			</g>
			<g opacity="0.2">
				<path d="M95.54,294.727c-0.356-0.596-1.708-1.639-3.483-2.807L67.32,316.656c4.036,2.641,10.167,5.873,11.855,5.966
					c0.151,0.019,0.306,0.029,0.462,0.029c0.211,0,0.417-0.019,0.619-0.052c0.044-0.007,0.088-0.014,0.132-0.023
					c0.009-0.001,0.02-0.004,0.029-0.006c0.052-0.012,0.107-0.023,0.165-0.039c0,0,0,0,0,0c3.255-0.816,13.715-6.869,14.918-8.746
					c0.188-0.248,0.346-0.521,0.467-0.814c1.069-2.375,1.063-15.539-0.035-17.565C95.826,295.165,95.693,294.938,95.54,294.727z"/>
			</g>
			<g>
				<path fill="#FFFFFF" d="M79.379,311.595c-0.786,0-1.568-0.024-2.346-0.071c-0.779-0.049-1.588-0.163-2.429-0.342v-13.893
					c0.661-0.123,1.385-0.217,2.17-0.278c0.786-0.062,1.516-0.093,2.191-0.093c0.909,0,1.747,0.066,2.511,0.195
					c0.765,0.132,1.424,0.355,1.975,0.674c0.551,0.316,0.981,0.732,1.292,1.25c0.311,0.517,0.464,1.154,0.464,1.911
					c0,1.146-0.551,2.048-1.653,2.708c0.909,0.346,1.529,0.813,1.86,1.406c0.331,0.592,0.497,1.262,0.497,2.006
					c0,1.502-0.548,2.633-1.644,3.39C83.172,311.217,81.542,311.595,79.379,311.595z M77.746,302.706h1.571
					c0.992,0,1.702-0.126,2.129-0.382c0.427-0.256,0.641-0.666,0.641-1.23c0-0.579-0.22-0.984-0.661-1.221
					c-0.441-0.232-1.09-0.35-1.943-0.35c-0.275,0-0.572,0.002-0.889,0.01c-0.317,0.008-0.6,0.023-0.848,0.051V302.706z
					 M77.746,305.166v3.701c0.234,0.026,0.489,0.047,0.765,0.061s0.579,0.021,0.91,0.021c0.964,0,1.743-0.138,2.336-0.414
					c0.592-0.275,0.888-0.785,0.888-1.529c0-0.662-0.248-1.135-0.744-1.417c-0.496-0.281-1.206-0.423-2.129-0.423H77.746z"/>
			</g>
		</g>
	</g>
</g>
</svg>
